<svg width="200" height="128" viewBox="0 0 200 128" fill="none" xmlns="http://www.w3.org/2000/svg">
<g clip-path="url(#clip0_42_8)">
<path d="M50.25 109C35.6667 109 28.375 101.708 28.375 87.125V80.25L40.25 74.625H40.875V87.125C40.875 94.2083 44 97.75 50.25 97.75H68.375C74.625 97.75 77.75 94.2083 77.75 87.125V26H41.9375V25.375L47 14.625H90.25V87.125C90.25 101.708 82.9583 109 68.375 109H50.25ZM134.938 111.5L103.062 17.25L113.875 12.125H114.5L140.375 90.625L164.812 12.125H165.438L176.25 17.25L146.375 106.375L135.562 111.5H134.938Z" fill="white"/>
<path d="M47 12H114.058L140 92L114.058 26.0881H47V12Z" fill="white"/>
<path d="M41.2596 25.3236L46.9169 11.996L47.5672 11.9977L48.0674 11.9973L48.3493 11.9949L48.3488 12.6038L42.5885 25.9476L41.2217 26.0294L41.2596 25.3236Z" fill="white"/>
</g>
<defs>
<clipPath id="clip0_42_8">
<rect width="200" height="128" fill="white"/>
</clipPath>
</defs>
</svg>
