<svg width="128" height="128" viewBox="0 0 128 128" fill="none" xmlns="http://www.w3.org/2000/svg">
<g clip-path="url(#clip0_29_17)">
<path d="M106.667 16H21.3333C15.4423 16 10.6666 20.7756 10.6666 26.6667V80C10.6666 85.891 15.4423 90.6667 21.3333 90.6667H106.667C112.558 90.6667 117.333 85.891 117.333 80V26.6667C117.333 20.7756 112.558 16 106.667 16Z" stroke="black" stroke-width="2" stroke-linecap="round" stroke-linejoin="round"/>
<path d="M42.6666 112H85.3333" stroke="black" stroke-width="2" stroke-linecap="round" stroke-linejoin="round"/>
<path d="M64 90.6667V112" stroke="black" stroke-width="2" stroke-linecap="round" stroke-linejoin="round"/>
<path d="M36.8255 39.4497C36.8255 37.9536 35.6126 36.7407 34.1165 36.7407C32.6203 36.7407 31.4075 37.9536 31.4075 39.4497V42.1587C31.4075 43.6548 32.6203 44.8677 34.1165 44.8677C35.6126 44.8677 36.8255 43.6548 36.8255 42.1587V39.4497Z" stroke="black" stroke-width="2" stroke-linecap="round" stroke-linejoin="round"/>
<path d="M25.9894 25.9048C25.9894 24.4086 24.7765 23.1958 23.2804 23.1958C21.7843 23.1958 20.5714 24.4086 20.5714 25.9048V28.6138C20.5714 30.1099 21.7843 31.3228 23.2804 31.3228C24.7765 31.3228 25.9894 30.1099 25.9894 28.6138V25.9048Z" stroke="black" stroke-width="2" stroke-linecap="round" stroke-linejoin="round"/>
<path d="M20.5714 44.8677H25.9894" stroke="black" stroke-width="2" stroke-linecap="round" stroke-linejoin="round"/>
<path d="M31.4075 31.3228H36.8255" stroke="black" stroke-width="2" stroke-linecap="round" stroke-linejoin="round"/>
<path d="M20.5714 36.7407H23.2804V44.8677" stroke="black" stroke-width="2" stroke-linecap="round" stroke-linejoin="round"/>
<path d="M31.4075 23.1958H34.1165V31.3228" stroke="black" stroke-width="2" stroke-linecap="round" stroke-linejoin="round"/>
<path d="M106.667 79.4074L111.407 74.6667L106.667 69.9259" stroke="black" stroke-width="2" stroke-linecap="round" stroke-linejoin="round"/>
<path d="M92.4445 69.9259L87.7037 74.6667L92.4445 79.4074" stroke="black" stroke-width="2" stroke-linecap="round" stroke-linejoin="round"/>
<path d="M102.519 65.1852L96.5927 84.1482" stroke="black" stroke-width="2" stroke-linecap="round" stroke-linejoin="round"/>
<path d="M41.3306 51.7216V50.9588H43.7842V54.2784C43.7842 54.8488 43.6399 55.2852 43.3512 55.5876C43.0626 55.89 42.6743 56.0412 42.1863 56.0412C41.6021 56.0412 41.1038 55.8351 40.6914 55.4227L41.176 54.7526C41.499 55.0619 41.8186 55.2165 42.1347 55.2165C42.3616 55.2165 42.5506 55.1409 42.7018 54.9897C42.853 54.8385 42.9286 54.6186 42.9286 54.3299V51.7216H41.3306ZM47.8702 51.6082C47.3685 51.6082 46.9458 51.7869 46.6021 52.1443C46.2585 52.5017 46.0867 52.9347 46.0867 53.4433C46.0867 53.9519 46.2585 54.3849 46.6021 54.7423C46.9458 55.0928 47.3685 55.268 47.8702 55.268C48.3719 55.268 48.7946 55.0928 49.1382 54.7423C49.4819 54.3849 49.6537 53.9519 49.6537 53.4433C49.6537 52.9347 49.4819 52.5017 49.1382 52.1443C48.7946 51.7869 48.3719 51.6082 47.8702 51.6082ZM47.8702 56.0515C47.1142 56.0515 46.4819 55.8041 45.9733 55.3093C45.4647 54.8076 45.2104 54.1856 45.2104 53.4433C45.2104 52.701 45.4647 52.0825 45.9733 51.5876C46.4819 51.0859 47.1142 50.8351 47.8702 50.8351C48.6262 50.8351 49.2585 51.0859 49.7671 51.5876C50.2757 52.0825 50.53 52.701 50.53 53.4433C50.53 54.1856 50.2722 54.8041 49.7568 55.299C49.2413 55.8007 48.6125 56.0515 47.8702 56.0515ZM52.7161 54.8557L52.2109 56H51.3037L53.5305 50.9588H54.4377L56.6542 56H55.747L55.2419 54.8557H52.7161ZM54.9016 54.0619L53.9841 51.9897L53.0666 54.0619H54.9016ZM60.0862 51.6082C59.5845 51.6082 59.1618 51.7869 58.8182 52.1443C58.4745 52.5017 58.3027 52.9347 58.3027 53.4433C58.3027 53.9519 58.4745 54.3849 58.8182 54.7423C59.1618 55.0928 59.5845 55.268 60.0862 55.268C60.5879 55.268 61.0106 55.0928 61.3542 54.7423C61.6979 54.3849 61.8697 53.9519 61.8697 53.4433C61.8697 52.9347 61.6979 52.5017 61.3542 52.1443C61.0106 51.7869 60.5879 51.6082 60.0862 51.6082ZM60.0862 56.0515C59.3302 56.0515 58.6979 55.8041 58.1893 55.3093C57.6807 54.8076 57.4264 54.1856 57.4264 53.4433C57.4264 52.701 57.6807 52.0825 58.1893 51.5876C58.6979 51.0859 59.3302 50.8351 60.0862 50.8351C60.8422 50.8351 61.4745 51.0859 61.9831 51.5876C62.4917 52.0825 62.746 52.701 62.746 53.4433C62.746 54.1856 62.4883 54.8041 61.9728 55.299C61.4573 55.8007 60.8285 56.0515 60.0862 56.0515ZM64.2208 56V50.9588H65.0764V55.1959H67.3754V56H64.2208ZM69.3832 52.2268C69.3832 52.4399 69.4622 52.5945 69.6203 52.6907C69.7784 52.8076 70.1152 52.9278 70.6306 53.0515C71.1736 53.1821 71.5688 53.3608 71.8162 53.5876C72.0705 53.8144 72.1976 54.1409 72.1976 54.567C72.1976 55.0137 72.0292 55.3746 71.6925 55.6495C71.3626 55.9244 70.9296 56.0619 70.3935 56.0619C69.6169 56.0619 68.9158 55.7869 68.2904 55.2371L68.8265 54.5979C69.3488 55.0447 69.878 55.268 70.4141 55.268C70.6822 55.268 70.8987 55.2096 71.0636 55.0928C71.2286 54.9691 71.311 54.811 71.311 54.6186C71.311 54.4261 71.2354 54.2749 71.0842 54.1649C70.9399 54.055 70.6787 53.9553 70.3007 53.866C69.6478 53.7148 69.1942 53.5361 68.9399 53.3299C68.6444 53.1031 68.4966 52.756 68.4966 52.2887C68.4966 51.8351 68.6615 51.4811 68.9914 51.2268C69.3213 50.9656 69.744 50.8351 70.2595 50.8351C70.9536 50.8351 71.5481 51.0378 72.043 51.4433L71.5894 52.0825C71.4382 51.945 71.2354 51.8351 70.9811 51.7526C70.7268 51.6632 70.476 51.6186 70.2286 51.6186C69.9743 51.6186 69.7681 51.6735 69.61 51.7835C69.4588 51.8866 69.3832 52.0344 69.3832 52.2268ZM77.768 50.9588C78.6683 50.9588 79.3625 51.1787 79.8504 51.6186C80.3384 52.0515 80.5824 52.6632 80.5824 53.4536C80.5824 54.2577 80.3418 54.8832 79.8607 55.3299C79.3796 55.7766 78.6614 56 77.7061 56H76.036V50.9588H77.768ZM77.737 51.7423H76.8917V55.1959H77.8298C78.4484 55.1959 78.9192 55.0515 79.2422 54.7629C79.5652 54.4674 79.7267 54.0378 79.7267 53.4742C79.7267 52.3196 79.0635 51.7423 77.737 51.7423ZM85.6171 50.9588V51.7526H82.9264V53.0928H85.3388V53.8454H82.9264V55.1959H85.6996V56H82.0708V50.9588H85.6171ZM89.4865 56H88.5381L86.5071 50.9588H87.4659L89.0123 54.7216L90.569 50.9588H91.5174L89.4865 56Z" fill="black"/>
</g>
<defs>
<clipPath id="clip0_29_17">
<rect width="128" height="128" fill="white"/>
</clipPath>
</defs>
</svg>
