<svg width="128" height="128" viewBox="0 0 128 128" fill="none" xmlns="http://www.w3.org/2000/svg">
<path d="M26.1875 98C15.25 98 9.78125 92.5312 9.78125 81.5938V76.4375L18.6875 72.2188H19.1562V81.5938C19.1562 86.9062 21.5 89.5625 26.1875 89.5625H39.7812C44.4688 89.5625 46.8125 86.9062 46.8125 81.5938V35.75H19.9531V35.2812L23.75 27.2188H56.1875V81.5938C56.1875 92.5312 50.7188 98 39.7812 98H26.1875ZM89.7031 99.875L65.7969 29.1875L73.9062 25.3438H74.375L93.7812 84.2188L112.109 25.3438H112.578L120.688 29.1875L98.2812 96.0312L90.1719 99.875H89.7031Z" fill="white"/>
<path d="M23 25H74.1947L94 86L74.1947 35.7421H23V25Z" fill="white"/>
<path d="M18.1704 34.8972L22.3681 25L23.2667 25.0079L23.8624 25.0132L24.3606 25.0176L24.4701 25.9283L20.1463 35.7803L18.1782 35.7629L18.1704 34.8972Z" fill="white"/>
</svg>
